<svg xmlns="http://www.w3.org/2000/svg" width="1499" height="1154" viewBox="0 0 1499 1154" version="1.1"><path d="M 258.637 3.250 C 257.873 5.038, 199.379 134.886, 128.652 291.801 L 0.057 577.103 124.412 858.301 C 192.808 1012.961, 250.231 1142.763, 252.018 1146.750 L 255.268 1154 407.384 1153.759 C 491.048 1153.626, 534.478 1153.397, 503.896 1153.250 L 448.291 1152.983 469.089 1076.912 L 489.888 1000.841 393.290 788.674 L 296.693 576.507 298.203 572.504 C 299.033 570.302, 357.879 441.375, 428.972 286 C 500.065 130.625, 558.457 2.712, 558.732 1.750 C 559.208 0.089, 551.633 0, 409.630 0 L 260.027 0 258.637 3.250 M 940.255 1.750 C 940.524 2.712, 953.902 32.300, 969.985 67.500 C 986.068 102.700, 1044.473 230.500, 1099.774 351.500 C 1155.074 472.500, 1200.738 572.625, 1201.249 574 C 1202.050 576.156, 1184.119 616.150, 1071.089 864.320 C 998.990 1022.621, 940 1152.558, 940 1153.070 C 940 1153.639, 998.857 1154, 1091.807 1154 L 1243.613 1154 1371.057 865.784 C 1441.150 707.266, 1498.367 577.103, 1498.205 576.534 C 1498.043 575.965, 1439.583 446.012, 1368.294 287.750 L 1238.678 0 1089.222 0 C 947.364 0, 939.792 0.089, 940.255 1.750" stroke="none" fill="#84c374" fill-rule="evenodd"/><path d="M 761.647 2.250 C 761.325 3.488, 700.048 228.375, 625.477 502 C 550.906 775.625, 480.553 1033.964, 469.137 1076.087 L 448.381 1152.674 531.440 1153.336 C 577.123 1153.701, 643.170 1153.999, 678.211 1153.999 L 741.923 1154 743.075 1149.750 C 743.709 1147.412, 801.958 918.098, 872.518 640.163 L 1000.809 134.826 970.405 68.283 C 953.682 31.684, 940 1.349, 940 0.870 C 940 0.383, 900.861 0, 851.117 0 L 762.233 0 761.647 2.250" stroke="none" fill="#040404" fill-rule="evenodd"/></svg>